<svg width="204" height="25" viewBox="0 0 204 25" fill="none" xmlns="http://www.w3.org/2000/svg">
<path fill-rule="evenodd" clip-rule="evenodd" d="M43.6512 23.3036C43.6512 23.8105 43.3959 24.0639 42.8852 24.0639H33.8883C33.671 24.0639 33.4944 24.0006 33.3586 23.8738C33.2228 23.7471 33.1549 23.5681 33.1549 23.3367C33.1549 23.1383 33.201 22.9785 33.2934 22.8573C33.3858 22.7361 33.5297 22.6369 33.7253 22.5598L34.4262 22.3449C34.6 22.2898 34.7358 22.1851 34.8336 22.0309C34.9314 21.8766 34.9803 21.6562 34.9803 21.3697V11.816C34.9803 11.6617 34.9423 11.5322 34.8662 11.4276C34.7902 11.3229 34.6489 11.2265 34.4425 11.1383L33.4971 10.8243C33.2472 10.703 33.0679 10.5736 32.9593 10.4358C32.8506 10.2981 32.7963 10.13 32.7963 9.93169C32.7963 9.73335 32.8642 9.57081 33 9.44409L33.0534 9.39954C33.1835 9.30252 33.3532 9.25401 33.5623 9.25401H34.9925L34.9813 9.15742C34.9508 8.96424 34.8744 8.7788 34.7521 8.60112C34.5891 8.3642 34.4044 8.09698 34.198 7.79946C33.9915 7.50194 33.8068 7.14657 33.6438 6.73335C33.4808 6.32012 33.3993 5.81048 33.3993 5.20442C33.3993 3.7609 33.8883 2.60663 34.8662 1.74161C35.8441 0.876599 37.235 0.444092 39.0387 0.444092C40.2013 0.444092 41.1657 0.63142 41.9317 1.00608C42.6977 1.38073 43.2709 1.87935 43.6512 2.50194C44.0315 3.12453 44.2217 3.80497 44.2217 4.54327C44.2217 5.41379 43.9962 6.06668 43.5453 6.50194C43.0943 6.9372 42.5157 7.15484 41.8095 7.15484C41.0271 7.15484 40.3969 6.90139 39.9188 6.39451C39.4407 5.88762 39.2017 5.21544 39.2017 4.37798V2.9069C39.2017 2.52123 39.1256 2.23748 38.9735 2.05566C38.8214 1.87384 38.5877 1.78293 38.2726 1.78293C37.8706 1.78293 37.5664 1.92068 37.3599 2.19616C37.1535 2.47164 37.0502 2.86833 37.0502 3.38624C37.0502 3.91517 37.1725 4.41103 37.417 4.87384C37.6614 5.33665 37.963 5.76916 38.3215 6.17136C38.6801 6.57357 39.0387 6.95924 39.3973 7.32839C39.7558 7.69754 40.0573 8.06117 40.3018 8.4193L40.3715 8.52665C40.5035 8.7412 40.5915 8.95475 40.6355 9.16731L40.6504 9.25401H43.0645C43.3144 9.25401 43.5072 9.30635 43.6431 9.41103C43.7789 9.51572 43.8468 9.67825 43.8468 9.89864C43.8468 10.2292 43.7055 10.4992 43.423 10.7086C43.1405 10.9179 42.695 11.0226 42.0865 11.0226H40.9293V21.3201C40.9293 21.6287 40.9755 21.8656 41.0679 22.0309C41.1602 22.1962 41.3096 22.2953 41.5161 22.3284L42.9178 22.5433C43.1677 22.5763 43.3524 22.6562 43.4719 22.7829C43.5914 22.9097 43.6512 23.0832 43.6512 23.3036ZM11.5591 23.6838C10.5812 24.1576 9.44029 24.3945 8.13639 24.3945C6.75644 24.3945 5.52045 24.1025 4.42844 23.5185C3.33643 22.9345 2.47532 22.0887 1.8451 20.9813C1.21489 19.8738 0.89978 18.5267 0.89978 16.94C0.89978 15.4083 1.22847 14.0391 1.88585 12.8325C2.54323 11.6259 3.45867 10.6727 4.63218 9.97302C5.80568 9.27329 7.17477 8.92343 8.73944 8.92343C10.0759 8.92343 11.2033 9.12178 12.1214 9.51847C13.0396 9.91517 13.7404 10.4524 14.2239 11.13C14.7075 11.8077 14.9492 12.5653 14.9492 13.4028C14.9492 14.2843 14.6966 14.9758 14.1913 15.4771C13.6861 15.9785 12.9988 16.2292 12.1296 16.2292C11.2386 16.2292 10.5622 15.973 10.1004 15.4606C9.63859 14.9482 9.40769 14.2457 9.40769 13.3532V12.2953C9.40769 11.7554 9.3099 11.3477 9.11431 11.0722C8.91873 10.7967 8.64165 10.659 8.28308 10.659C7.92451 10.659 7.60125 10.805 7.31331 11.097C7.02537 11.389 6.80262 11.827 6.64506 12.411C6.48751 12.9951 6.40873 13.7168 6.40873 14.5763C6.40873 15.8105 6.59073 16.8463 6.95474 17.6838C7.31874 18.5212 7.81585 19.1493 8.44607 19.5681C9.07628 19.9868 9.79342 20.1962 10.5975 20.1962C11.4016 20.1962 12.0752 20.0777 12.6185 19.8408C13.1618 19.6039 13.5801 19.2044 13.8735 18.6424C14.0365 18.4882 14.1642 18.389 14.2565 18.3449C14.3489 18.3008 14.4385 18.2788 14.5255 18.2788C14.6341 18.2898 14.7238 18.3422 14.7944 18.4358C14.865 18.5295 14.8949 18.6755 14.884 18.8738C14.7971 19.9537 14.4657 20.9069 13.8898 21.7333C13.3139 22.5598 12.537 23.2099 11.5591 23.6838ZM28.1267 23.3532C26.9043 24.0254 25.4836 24.3614 23.8646 24.3614C22.2891 24.3614 20.9064 24.0336 19.7166 23.378C18.5268 22.7223 17.6005 21.816 16.9377 20.659C16.2749 19.5019 15.9435 18.1631 15.9435 16.6424C15.9435 15.1879 16.2912 13.8794 16.9866 12.7168C17.682 11.5543 18.6436 10.6314 19.8714 9.94822C21.0993 9.26503 22.5118 8.92343 24.1091 8.92343C25.6955 8.92343 27.0809 9.25401 28.2653 9.91517C29.4496 10.5763 30.3732 11.4909 31.036 12.659C31.6988 13.827 32.0303 15.1769 32.0303 16.7086C32.0303 18.1631 31.6853 19.4661 30.9953 20.6176C30.3053 21.7692 29.3491 22.681 28.1267 23.3532ZM25.1033 22.6424C24.7665 22.7086 24.4378 22.5598 24.1172 22.1962C23.7967 21.8325 23.4925 21.221 23.2045 20.3614C22.9166 19.5019 22.6422 18.3725 22.3814 16.973C22.1315 15.5736 21.9903 14.4221 21.9577 13.5185C21.9251 12.6149 21.9903 11.9317 22.1533 11.4689C22.3162 11.0061 22.5662 10.7361 22.903 10.659C23.2398 10.5929 23.5685 10.7416 23.8891 11.1052C24.2096 11.4689 24.5166 12.0805 24.8099 12.94C25.1033 13.7995 25.3804 14.9289 25.6412 16.3284C25.9019 17.7278 26.0459 18.8821 26.0731 19.7912C26.1003 20.7003 26.0296 21.3862 25.8612 21.8491C25.6928 22.3119 25.4402 22.5763 25.1033 22.6424ZM54.2616 24.0639C54.7723 24.0639 55.0277 23.8105 55.0277 23.3036C55.0277 23.0832 54.9679 22.9097 54.8484 22.7829C54.7289 22.6562 54.5442 22.5763 54.2942 22.5433L52.8926 22.3284C52.6861 22.2953 52.5367 22.1962 52.4443 22.0309C52.352 21.8656 52.3058 21.6287 52.3058 21.3201V11.0226H53.463C54.0715 11.0226 54.517 10.9179 54.7995 10.7086C55.082 10.4992 55.2233 10.2292 55.2233 9.89864C55.2233 9.67825 55.1554 9.51572 55.0195 9.41103C54.8837 9.30635 54.6908 9.25401 54.4409 9.25401H52.0269L52.012 9.16731C51.968 8.95475 51.88 8.7412 51.748 8.52665L51.6783 8.4193C51.4338 8.06117 51.1323 7.69754 50.7737 7.32839C50.4152 6.95924 50.0566 6.57357 49.698 6.17136C49.3394 5.76916 49.0379 5.33665 48.7934 4.87384C48.549 4.41103 48.4267 3.91517 48.4267 3.38624C48.4267 2.86833 48.5299 2.47164 48.7364 2.19616C48.9428 1.92068 49.2471 1.78293 49.6491 1.78293C49.9642 1.78293 50.1978 1.87384 50.35 2.05566C50.5021 2.23748 50.5781 2.52123 50.5781 2.9069V4.37798C50.5781 5.21544 50.8172 5.88762 51.2953 6.39451C51.7734 6.90139 52.4036 7.15484 53.1859 7.15484C53.8922 7.15484 54.4708 6.9372 54.9217 6.50194C55.3727 6.06668 55.5981 5.41379 55.5981 4.54327C55.5981 3.80497 55.408 3.12453 55.0277 2.50194C54.6474 1.87935 54.0742 1.38073 53.3082 1.00608C52.5421 0.63142 51.5778 0.444092 50.4152 0.444092C48.6114 0.444092 47.2206 0.876599 46.2427 1.74161C45.2648 2.60663 44.7758 3.7609 44.7758 5.20442C44.7758 5.81048 44.8573 6.32012 45.0203 6.73335C45.1833 7.14657 45.368 7.50194 45.5745 7.79946C45.7809 8.09698 45.9656 8.3642 46.1286 8.60112C46.2508 8.7788 46.3272 8.96424 46.3578 9.15742L46.369 9.25401H44.9388C44.7296 9.25401 44.56 9.30252 44.4299 9.39954L44.3765 9.44409C44.2407 9.57081 44.1728 9.73335 44.1728 9.93169C44.1728 10.13 44.2271 10.2981 44.3358 10.4358C44.4444 10.5736 44.6237 10.703 44.8736 10.8243L45.8189 11.1383C46.0254 11.2265 46.1666 11.3229 46.2427 11.4276C46.3188 11.5322 46.3568 11.6617 46.3568 11.816V21.3697C46.3568 21.6562 46.3079 21.8766 46.2101 22.0309C46.1123 22.1851 45.9765 22.2898 45.8026 22.3449L45.1018 22.5598C44.9062 22.6369 44.7622 22.7361 44.6699 22.8573C44.5775 22.9785 44.5313 23.1383 44.5313 23.3367C44.5313 23.5681 44.5992 23.7471 44.7351 23.8738C44.8709 24.0006 45.0475 24.0639 45.2648 24.0639H54.2616ZM67.0235 23.5846C65.9695 24.1245 64.7526 24.3945 63.3726 24.3945C61.8514 24.3945 60.5149 24.0777 59.3631 23.4441C58.2114 22.8105 57.3122 21.9234 56.6657 20.7829C56.0192 19.6424 55.6959 18.3229 55.6959 16.8243C55.6959 15.2485 56.0083 13.8683 56.6331 12.6838C57.2579 11.4992 58.1625 10.5763 59.3468 9.91517C60.5312 9.25401 61.9546 8.92343 63.6171 8.92343C65.0296 8.92343 66.2466 9.20167 67.268 9.75814C68.2894 10.3146 69.0744 11.0694 69.6231 12.0226C70.1719 12.9758 70.4462 14.0364 70.4462 15.2044C70.4462 15.7113 70.3104 16.1108 70.0388 16.4028L69.974 16.4676C69.7062 16.7164 69.3367 16.8408 68.8653 16.8408H61.4145L61.4305 16.917C61.6282 17.8245 61.9659 18.5511 62.4436 19.097C63.2585 20.0281 64.3451 20.4937 65.7033 20.4937C66.5726 20.4937 67.3413 20.2953 68.0096 19.8986C68.6778 19.5019 69.126 18.951 69.3542 18.2457C69.4846 18.1025 69.6014 18.0061 69.7046 17.9565C69.8079 17.9069 69.8975 17.8821 69.9736 17.8821C70.0822 17.8821 70.1746 17.9262 70.2506 18.0143C70.3267 18.1025 70.3647 18.2513 70.3647 18.4606C70.3647 19.5405 70.0714 20.5295 69.4846 21.4276C68.8979 22.3256 68.0775 23.0446 67.0235 23.5846ZM61.2444 15.5158C61.2289 15.2622 61.2212 14.9987 61.2212 14.7251C61.2212 13.6893 61.2972 12.8738 61.4494 12.2788C61.6015 11.6838 61.7971 11.2623 62.0361 11.0143C62.2752 10.7664 62.5414 10.6424 62.8347 10.6424C63.215 10.6424 63.5709 10.9675 63.9023 11.6176C64.2337 12.2678 64.3994 13.3477 64.3994 14.8573C64.3994 15.3201 64.193 15.5515 63.7801 15.5515H61.2465L61.2444 15.5158ZM82.605 23.5846C81.5511 24.1245 80.3341 24.3945 78.9541 24.3945C77.4329 24.3945 76.0964 24.0777 74.9447 23.4441C73.7929 22.8105 72.8937 21.9234 72.2472 20.7829C71.6007 19.6424 71.2775 18.3229 71.2775 16.8243C71.2775 15.2485 71.5899 13.8683 72.2146 12.6838C72.8394 11.4992 73.744 10.5763 74.9284 9.91517C76.1127 9.25401 77.5361 8.92343 79.1986 8.92343C80.6112 8.92343 81.8281 9.20167 82.8495 9.75814C83.8709 10.3146 84.656 11.0694 85.2047 12.0226C85.7534 12.9758 86.0278 14.0364 86.0278 15.2044C86.0278 15.7113 85.8919 16.1108 85.6203 16.4028L85.5555 16.4676C85.2878 16.7164 84.9182 16.8408 84.4468 16.8408H76.996L77.012 16.917C77.2097 17.8245 77.5474 18.5511 78.0251 19.097C78.84 20.0281 79.9266 20.4937 81.2848 20.4937C82.1541 20.4937 82.9229 20.2953 83.5911 19.8986C84.2594 19.5019 84.7076 18.951 84.9357 18.2457C85.0661 18.1025 85.1829 18.0061 85.2862 17.9565C85.3894 17.9069 85.479 17.8821 85.5551 17.8821C85.6638 17.8821 85.7561 17.9262 85.8322 18.0143C85.9082 18.1025 85.9463 18.2513 85.9463 18.4606C85.9463 19.5405 85.6529 20.5295 85.0661 21.4276C84.4794 22.3256 83.659 23.0446 82.605 23.5846ZM76.826 15.5158C76.8105 15.2622 76.8027 14.9987 76.8027 14.7251C76.8027 13.6893 76.8788 12.8738 77.0309 12.2788C77.183 11.6838 77.3786 11.2623 77.6176 11.0143C77.8567 10.7664 78.1229 10.6424 78.4163 10.6424C78.7966 10.6424 79.1524 10.9675 79.4838 11.6176C79.8152 12.2678 79.981 13.3477 79.981 14.8573C79.981 15.3201 79.7745 15.5515 79.3616 15.5515H76.8281L76.826 15.5158ZM96.4997 23.8573C96.3638 23.9951 96.1655 24.0639 95.9048 24.0639H87.7554C87.5164 24.0639 87.3289 23.9978 87.1931 23.8656C87.0573 23.7333 86.9894 23.5515 86.9894 23.3201C86.9894 23.1438 87.0301 22.9978 87.1116 22.8821C87.1931 22.7664 87.3045 22.659 87.4457 22.5598L87.8206 22.411C87.9619 22.3449 88.0597 22.2402 88.114 22.097C88.1683 21.9537 88.1955 21.7168 88.1955 21.3862V12.9895C88.1955 12.7251 88.1656 12.535 88.1058 12.4193C88.0461 12.3036 87.9456 12.2127 87.8043 12.1466L87.3805 12.097C87.2284 12.0088 87.1171 11.9152 87.0464 11.816C86.9758 11.7168 86.9405 11.5901 86.9405 11.4358C86.9405 11.2595 86.9948 11.1025 87.1035 10.9648C87.2121 10.827 87.3968 10.7086 87.6576 10.6094L92.2864 9.27054C92.5581 9.16035 92.7863 9.08321 92.971 9.03913C93.1557 8.99506 93.3133 8.97302 93.4437 8.97302C93.6284 8.97302 93.7669 9.03913 93.8593 9.17136L93.8889 9.21932C93.9651 9.35754 94.0177 9.57847 94.0467 9.88211L94.1708 12.4505L94.1991 12.3557C94.2541 12.1768 94.3147 12.0052 94.3808 11.8408C94.7774 10.8546 95.3017 10.1218 95.9537 9.64244C96.6056 9.1631 97.3173 8.92343 98.0888 8.92343C99.0232 8.92343 99.7404 9.23748 100.24 9.86558C100.74 10.4937 100.99 11.4468 100.99 12.7251C100.99 13.9923 100.729 14.9234 100.208 15.5185C99.6861 16.1135 99.0124 16.411 98.1866 16.411C97.3825 16.411 96.7876 16.2072 96.4019 15.7995C96.0161 15.3917 95.8124 14.8132 95.7907 14.0639L95.7744 13.4028C95.7635 13.1493 95.7146 12.951 95.6277 12.8077C95.5407 12.6645 95.3995 12.5929 95.2039 12.5929C95.0083 12.5929 94.8372 12.6948 94.6905 12.8986C94.5438 13.1025 94.4324 13.4138 94.3564 13.8325C94.2803 14.2513 94.2423 14.7857 94.2423 15.4358V21.254C94.2423 21.5625 94.2912 21.8077 94.389 21.9895C94.4868 22.1714 94.6389 22.2843 94.8453 22.3284L96.0677 22.5763C96.2959 22.6094 96.4589 22.6948 96.5567 22.8325C96.6545 22.9703 96.7034 23.1328 96.7034 23.3201C96.7034 23.5405 96.6355 23.7196 96.4997 23.8573ZM109.53 24.3614C111.149 24.3614 112.57 24.0254 113.793 23.3532C115.015 22.681 115.971 21.7692 116.661 20.6176C117.351 19.4661 117.696 18.1631 117.696 16.7086C117.696 15.1769 117.365 13.827 116.702 12.659C116.039 11.4909 115.115 10.5763 113.931 9.91517C112.747 9.25401 111.361 8.92343 109.775 8.92343C108.178 8.92343 106.765 9.26503 105.537 9.94822C104.309 10.6314 103.348 11.5543 102.652 12.7168C101.957 13.8794 101.609 15.1879 101.609 16.6424C101.609 18.1631 101.941 19.5019 102.604 20.659C103.266 21.816 104.193 22.7223 105.382 23.378C106.572 24.0336 107.955 24.3614 109.53 24.3614ZM109.783 22.1962C110.104 22.5598 110.432 22.7086 110.769 22.6424C111.106 22.5763 111.359 22.3119 111.527 21.8491C111.695 21.3862 111.766 20.7003 111.739 19.7912C111.712 18.8821 111.568 17.7278 111.307 16.3284C111.046 14.9289 110.769 13.7995 110.476 12.94C110.182 12.0805 109.875 11.4689 109.555 11.1052C109.234 10.7416 108.906 10.5929 108.569 10.659C108.232 10.7361 107.982 11.0061 107.819 11.4689C107.656 11.9317 107.591 12.6149 107.624 13.5185C107.656 14.4221 107.797 15.5736 108.047 16.973C108.308 18.3725 108.582 19.5019 108.87 20.3614C109.158 21.221 109.463 21.8325 109.783 22.1962ZM130.621 24.3945C131.534 24.3945 132.283 24.2265 132.87 23.8904C133.457 23.5543 133.894 23.1548 134.182 22.692C134.47 22.2292 134.614 21.805 134.614 21.4193C134.614 21.254 134.579 21.1163 134.508 21.0061C134.438 20.8959 134.342 20.8408 134.223 20.8408C134.169 20.8408 134.12 20.8518 134.076 20.8738C134.033 20.8959 133.995 20.9289 133.962 20.973C133.908 21.1714 133.824 21.3091 133.71 21.3862C133.595 21.4634 133.473 21.5019 133.343 21.5019C133.158 21.5019 133.02 21.4386 132.927 21.3119C132.835 21.1851 132.789 21.0171 132.789 20.8077V13.5019C132.789 12.0474 132.297 10.9207 131.314 10.1218C130.33 9.32288 128.79 8.92343 126.693 8.92343C125.063 8.92343 123.702 9.12729 122.61 9.535C121.518 9.94271 120.698 10.4634 120.149 11.097C119.6 11.7306 119.326 12.378 119.326 13.0391C119.326 13.7444 119.53 14.2816 119.937 14.6507C120.345 15.0198 120.934 15.2044 121.706 15.2044C122.651 15.2044 123.395 14.9482 123.938 14.4358C124.482 13.9234 124.753 13.2595 124.753 12.4441V11.1879C124.753 10.8794 124.848 10.6397 125.039 10.4689C125.229 10.2981 125.465 10.2127 125.748 10.2127C126.052 10.2127 126.294 10.3256 126.473 10.5515C126.652 10.7774 126.742 11.0832 126.742 11.4689L126.741 16.2871L126.655 16.2682C126.393 16.2176 126.089 16.1887 125.744 16.1814L125.568 16.1796C123.232 16.1796 121.491 16.5763 120.345 17.3697C119.198 18.1631 118.625 19.2705 118.625 20.692C118.625 21.7719 119.019 22.659 119.807 23.3532C120.595 24.0474 121.64 24.3945 122.944 24.3945C123.922 24.3945 124.835 24.1934 125.682 23.7912C126.318 23.4895 126.835 23.0934 127.232 22.6027L127.254 22.574L127.278 22.648C127.404 23.0053 127.633 23.3253 127.967 23.6083L128.07 23.692C128.673 24.1603 129.523 24.3945 130.621 24.3945ZM125.006 21.2788C125.272 21.6369 125.623 21.816 126.057 21.816L126.151 21.8128C126.336 21.7999 126.515 21.7482 126.688 21.6578L126.741 21.6277V17.3862L126.66 17.3614C126.476 17.3119 126.258 17.2871 126.008 17.2871C125.585 17.2871 125.245 17.4854 124.99 17.8821C124.734 18.2788 124.607 18.8628 124.607 19.6342C124.607 20.3725 124.74 20.9207 125.006 21.2788ZM142.111 24.4441C144.046 24.4441 145.529 23.9978 146.561 23.1052C147.593 22.2127 148.109 20.9951 148.109 19.4524C148.109 18.5157 147.936 17.6948 147.588 16.9895C147.24 16.2843 146.632 15.659 145.762 15.1135C144.893 14.5681 143.671 14.0529 142.095 13.5681C141.508 13.3807 141.055 13.1906 140.734 12.9978C140.414 12.805 140.194 12.5984 140.074 12.378C139.955 12.1576 139.895 11.9207 139.895 11.6672C139.895 11.2926 140.031 10.9895 140.302 10.7581C140.574 10.5267 140.976 10.411 141.508 10.411C142.247 10.411 142.945 10.659 143.603 11.1548C144.26 11.6507 144.986 12.4992 145.779 13.7003C145.985 13.9537 146.192 14.1383 146.398 14.254C146.604 14.3697 146.8 14.4055 146.985 14.3614C147.213 14.2953 147.354 14.1438 147.409 13.9069C147.463 13.67 147.452 13.3311 147.376 12.8904L146.952 9.84905C146.909 9.52949 146.827 9.3036 146.708 9.17136C146.588 9.03913 146.431 8.97302 146.235 8.97302C146.061 8.97302 145.844 9.03362 145.583 9.15484C145.322 9.27605 145.064 9.40001 144.809 9.52674C144.554 9.65346 144.361 9.71682 144.23 9.71682C144.111 9.71682 143.934 9.6507 143.701 9.51847C143.467 9.38624 143.138 9.25401 142.715 9.12178C142.291 8.98955 141.742 8.92343 141.068 8.92343C139.949 8.92343 138.941 9.12729 138.045 9.535C137.149 9.94271 136.442 10.524 135.926 11.2788C135.41 12.0336 135.152 12.9345 135.152 13.9813C135.152 14.9069 135.345 15.7168 135.731 16.411C136.116 17.1052 136.706 17.7003 137.499 18.1962C138.292 18.692 139.292 19.0942 140.498 19.4028C141.28 19.6121 141.881 19.8243 142.299 20.0391C142.717 20.254 143.005 20.4882 143.163 20.7416C143.32 20.9951 143.399 21.276 143.399 21.5846C143.399 21.9923 143.263 22.3284 142.992 22.5929C142.72 22.8573 142.307 22.9895 141.753 22.9895C141.231 22.9895 140.734 22.8766 140.262 22.6507C139.789 22.4248 139.303 22.0364 138.803 21.4854C138.303 20.9345 137.743 20.1796 137.124 19.221C136.939 18.9675 136.73 18.7912 136.497 18.692C136.263 18.5929 136.027 18.5984 135.788 18.7086C135.559 18.7967 135.413 18.984 135.348 19.2705C135.282 19.557 135.299 19.9097 135.396 20.3284L135.902 23.6176C135.978 23.9482 136.086 24.1686 136.228 24.2788C136.369 24.389 136.521 24.4441 136.684 24.4441C136.869 24.4441 137.094 24.3835 137.36 24.2623L138.159 23.8986C138.425 23.7774 138.64 23.7168 138.803 23.7168C138.966 23.7168 139.18 23.7774 139.447 23.8986C139.713 24.0198 140.061 24.1411 140.49 24.2623C140.919 24.3835 141.46 24.4441 142.111 24.4441ZM157.563 23.8243C156.846 24.2044 155.998 24.3945 155.02 24.3945C153.368 24.3945 152.127 23.9923 151.296 23.1879C150.465 22.3835 150.049 21.1163 150.049 19.3862V11.9152C150.049 11.6838 150.027 11.5075 149.984 11.3862C149.94 11.265 149.832 11.1659 149.658 11.0887L148.892 10.8408C148.707 10.7526 148.588 10.6452 148.533 10.5185C148.479 10.3918 148.452 10.2347 148.452 10.0474C148.452 9.81599 148.533 9.62591 148.696 9.47715C148.859 9.32839 149.06 9.25401 149.299 9.25401H150.098C150.196 9.25401 150.299 9.21544 150.408 9.13831C150.516 9.06117 150.663 8.9069 150.848 8.6755L153.863 6.14657C154.08 5.88211 154.297 5.68101 154.515 5.54327C154.732 5.40552 154.949 5.33665 155.167 5.33665C155.417 5.33665 155.612 5.41379 155.753 5.56806L155.798 5.62275C155.91 5.77729 155.965 6.00148 155.965 6.29533L155.965 9.25401H159.372C159.611 9.25401 159.796 9.30635 159.926 9.41103C160.056 9.51572 160.122 9.67825 160.122 9.89864C160.122 10.2072 159.986 10.4716 159.714 10.692L159.653 10.7376C159.38 10.9276 158.965 11.0226 158.41 11.0226H155.965L155.965 18.5598C155.965 19.3862 156.104 19.9978 156.381 20.3945C156.658 20.7912 157.063 20.9895 157.595 20.9895C157.823 20.9895 158.035 20.94 158.231 20.8408C158.426 20.7416 158.603 20.6121 158.761 20.4524C158.918 20.2926 159.068 20.1135 159.209 19.9152C159.35 19.7168 159.486 19.5185 159.616 19.3201C159.725 19.276 159.82 19.2953 159.902 19.378C159.983 19.4606 160.018 19.6287 160.007 19.8821C159.931 20.7747 159.684 21.5598 159.266 22.2375C158.848 22.9152 158.28 23.4441 157.563 23.8243ZM168.238 24.3945C169.618 24.3945 170.835 24.1245 171.889 23.5846C172.943 23.0446 173.764 22.3256 174.35 21.4276C174.937 20.5295 175.23 19.5405 175.23 18.4606C175.23 18.2513 175.192 18.1025 175.116 18.0143C175.04 17.9262 174.948 17.8821 174.839 17.8821C174.763 17.8821 174.674 17.9069 174.57 17.9565C174.467 18.0061 174.35 18.1025 174.22 18.2457C173.992 18.951 173.543 19.5019 172.875 19.8986C172.207 20.2953 171.438 20.4937 170.569 20.4937C169.211 20.4937 168.124 20.0281 167.309 19.097C166.832 18.5511 166.494 17.8245 166.296 16.917L166.28 16.8408H173.731C174.202 16.8408 174.572 16.7164 174.84 16.4676L174.904 16.4028C175.176 16.1108 175.312 15.7113 175.312 15.2044C175.312 14.0364 175.038 12.9758 174.489 12.0226C173.94 11.0694 173.155 10.3146 172.134 9.75814C171.112 9.20167 169.895 8.92343 168.483 8.92343C166.82 8.92343 165.397 9.25401 164.213 9.91517C163.028 10.5763 162.124 11.4992 161.499 12.6838C160.874 13.8683 160.562 15.2485 160.562 16.8243C160.562 18.3229 160.885 19.6424 161.531 20.7829C162.178 21.9234 163.077 22.8105 164.229 23.4441C165.381 24.0777 166.717 24.3945 168.238 24.3945ZM166.087 14.7251C166.087 14.9987 166.095 15.2622 166.11 15.5158L166.112 15.5515H168.646C169.059 15.5515 169.265 15.3201 169.265 14.8573C169.265 13.3477 169.099 12.2678 168.768 11.6176C168.437 10.9675 168.081 10.6424 167.7 10.6424C167.407 10.6424 167.141 10.7664 166.902 11.0143C166.663 11.2623 166.467 11.6838 166.315 12.2788C166.163 12.8738 166.087 13.6893 166.087 14.7251ZM185.189 24.0639C185.45 24.0639 185.648 23.9951 185.784 23.8573C185.92 23.7196 185.988 23.5405 185.988 23.3201C185.988 23.1328 185.939 22.9703 185.841 22.8325C185.743 22.6948 185.58 22.6094 185.352 22.5763L184.129 22.3284C183.923 22.2843 183.771 22.1714 183.673 21.9895C183.575 21.8077 183.526 21.5625 183.526 21.254V15.4358C183.526 14.7857 183.564 14.2513 183.641 13.8325C183.717 13.4138 183.828 13.1025 183.975 12.8986C184.121 12.6948 184.292 12.5929 184.488 12.5929C184.684 12.5929 184.825 12.6645 184.912 12.8077C184.999 12.951 185.048 13.1493 185.059 13.4028L185.075 14.0639C185.097 14.8132 185.3 15.3917 185.686 15.7995C186.072 16.2072 186.667 16.411 187.471 16.411C188.297 16.411 188.97 16.1135 189.492 15.5185C190.013 14.9234 190.274 13.9923 190.274 12.7251C190.274 11.4468 190.024 10.4937 189.524 9.86558C189.025 9.23748 188.307 8.92343 187.373 8.92343C186.601 8.92343 185.89 9.1631 185.238 9.64244C184.586 10.1218 184.062 10.8546 183.665 11.8408C183.599 12.0052 183.538 12.1768 183.483 12.3557L183.455 12.451L183.331 9.88211C183.302 9.57847 183.249 9.35754 183.173 9.21932L183.143 9.17136C183.051 9.03913 182.913 8.97302 182.728 8.97302C182.597 8.97302 182.44 8.99506 182.255 9.03913C182.07 9.08321 181.842 9.16035 181.571 9.27054L176.942 10.6094C176.681 10.7086 176.496 10.827 176.388 10.9648C176.279 11.1025 176.225 11.2595 176.225 11.4358C176.225 11.5901 176.26 11.7168 176.331 11.816C176.401 11.9152 176.513 12.0088 176.665 12.097L177.088 12.1466C177.23 12.2127 177.33 12.3036 177.39 12.4193C177.45 12.535 177.48 12.7251 177.48 12.9895V21.3862C177.48 21.7168 177.452 21.9537 177.398 22.097C177.344 22.2402 177.246 22.3449 177.105 22.411L176.73 22.5598C176.589 22.659 176.477 22.7664 176.396 22.8821C176.314 22.9978 176.274 23.1438 176.274 23.3201C176.274 23.5515 176.341 23.7333 176.477 23.8656C176.613 23.9978 176.801 24.0639 177.04 24.0639H185.189ZM202.351 23.1052C201.319 23.9978 199.836 24.4441 197.902 24.4441C197.25 24.4441 196.709 24.3835 196.28 24.2623C195.851 24.1411 195.503 24.0198 195.237 23.8986C194.971 23.7774 194.756 23.7168 194.593 23.7168C194.43 23.7168 194.216 23.7774 193.949 23.8986L193.151 24.2623C192.885 24.3835 192.659 24.4441 192.474 24.4441C192.311 24.4441 192.159 24.389 192.018 24.2788C191.877 24.1686 191.768 23.9482 191.692 23.6176L191.187 20.3284C191.089 19.9097 191.073 19.557 191.138 19.2705C191.203 18.984 191.35 18.7967 191.578 18.7086C191.817 18.5984 192.053 18.5929 192.287 18.692C192.521 18.7912 192.73 18.9675 192.914 19.221C193.534 20.1796 194.093 20.9345 194.593 21.4854C195.093 22.0364 195.579 22.4248 196.052 22.6507C196.525 22.8766 197.022 22.9895 197.543 22.9895C198.097 22.9895 198.51 22.8573 198.782 22.5929C199.054 22.3284 199.189 21.9923 199.189 21.5846C199.189 21.276 199.111 20.9951 198.953 20.7416C198.796 20.4882 198.508 20.254 198.089 20.0391C197.671 19.8243 197.071 19.6121 196.288 19.4028C195.082 19.0942 194.083 18.692 193.289 18.1962C192.496 17.7003 191.907 17.1052 191.521 16.411C191.135 15.7168 190.942 14.9069 190.942 13.9813C190.942 12.9345 191.2 12.0336 191.717 11.2788C192.233 10.524 192.939 9.94271 193.835 9.535C194.732 9.12729 195.74 8.92343 196.859 8.92343C197.532 8.92343 198.081 8.98955 198.505 9.12178C198.929 9.25401 199.257 9.38624 199.491 9.51847C199.725 9.6507 199.901 9.71682 200.021 9.71682C200.151 9.71682 200.344 9.65346 200.599 9.52674C200.855 9.40001 201.113 9.27605 201.373 9.15484C201.634 9.03362 201.852 8.97302 202.025 8.97302C202.221 8.97302 202.379 9.03913 202.498 9.17136C202.618 9.3036 202.699 9.52949 202.743 9.84905L203.166 12.8904C203.242 13.3311 203.253 13.67 203.199 13.9069C203.145 14.1438 203.003 14.2953 202.775 14.3614C202.59 14.4055 202.395 14.3697 202.188 14.254C201.982 14.1383 201.776 13.9537 201.569 13.7003C200.776 12.4992 200.051 11.6507 199.393 11.1548C198.736 10.659 198.038 10.411 197.299 10.411C196.766 10.411 196.364 10.5267 196.093 10.7581C195.821 10.9895 195.685 11.2926 195.685 11.6672C195.685 11.9207 195.745 12.1576 195.865 12.378C195.984 12.5984 196.204 12.805 196.525 12.9978C196.845 13.1906 197.299 13.3807 197.886 13.5681C199.461 14.0529 200.684 14.5681 201.553 15.1135C202.422 15.659 203.031 16.2843 203.378 16.9895C203.726 17.6948 203.9 18.5157 203.9 19.4524C203.9 20.9951 203.384 22.2127 202.351 23.1052Z" fill="white"/>
</svg>
