<svg width="25" height="24" viewBox="0 0 25 24" fill="none" xmlns="http://www.w3.org/2000/svg">
<path fill-rule="evenodd" clip-rule="evenodd" d="M13.4999 3.00268C9.98273 -0.508874 4.76927 -1.01438 1.87808 1.87766C-1.01462 4.76821 -0.508734 9.97779 3.00243 13.4908C3.93914 14.4269 5.01846 15.1424 6.15783 15.6554C6.53161 13.4848 7.60342 11.3983 9.23066 9.68528C8.69175 9.49328 8.13933 9.33128 7.56289 9.17377C4.1493 8.23776 2.45301 5.39222 2.05671 2.05617C2.38449 2.45002 2.68292 2.86313 2.98047 3.27503C3.55778 4.0742 4.13178 4.86879 4.91038 5.50922C6.12157 6.50576 7.45104 6.89045 8.90551 7.3113C8.96166 7.32755 9.01801 7.34385 9.07454 7.36025C9.76356 7.55975 10.3625 7.85525 10.9119 8.20026C12.356 7.14574 13.9848 6.44373 15.666 6.15423C15.1542 5.01571 14.4366 3.93869 13.4999 3.00268ZM7.55238 16.4894C7.77605 14.3159 8.82985 12.1903 10.5186 10.5028C14.0358 6.99126 19.2493 6.48425 22.1404 9.3778C25.0331 12.2683 24.5288 17.4779 21.0131 20.991C19.3243 22.6785 17.1972 23.7315 15.022 23.9565C14.7323 23.985 14.4456 24 14.1649 24C12.2945 24 10.6237 23.3445 9.39277 22.1145C7.9757 20.7 7.3212 18.7019 7.55238 16.4894ZM12.6968 18.2728C13.8497 17.3937 15.0971 17.0457 16.4542 16.6752C19.8678 15.7392 21.5625 12.8937 21.9604 9.55762C21.6353 9.94928 21.3391 10.3596 21.0437 10.7687L21.0437 10.7687C20.4647 11.5707 19.889 12.368 19.1067 13.0107C17.8918 14.0088 16.5592 14.3942 15.0983 14.8166L14.9425 14.8617C11.6025 15.8307 9.95124 18.6523 9.56995 21.9358C9.89896 21.5408 10.2004 21.1307 10.5002 20.7228L10.5002 20.7228C11.1511 19.8372 11.7945 18.9618 12.6968 18.2728Z" fill="#0E8784"/>
</svg>
