<svg width="204" height="24" viewBox="0 0 204 24" fill="none" xmlns="http://www.w3.org/2000/svg">
<path fill-rule="evenodd" clip-rule="evenodd" d="M42.8099 22.8595C42.8099 23.3664 42.5543 23.6198 42.0432 23.6198H33.0393C32.8218 23.6198 32.6451 23.5565 32.5092 23.4298C32.3733 23.303 32.3053 23.124 32.3053 22.8926C32.3053 22.6942 32.3515 22.5344 32.4439 22.4132C32.5364 22.292 32.6805 22.1928 32.8762 22.1157L33.5776 21.9008C33.7516 21.8457 33.8875 21.741 33.9854 21.5868C34.0832 21.4325 34.1322 21.2121 34.1322 20.9256V11.3719C34.1322 11.2176 34.0941 11.0882 34.018 10.9835C33.9419 10.8788 33.8005 10.7824 33.5939 10.6942L32.6478 10.3802C32.3977 10.259 32.2183 10.1295 32.1096 9.99174C32.0008 9.85399 31.9464 9.68595 31.9464 9.4876C31.9464 9.28926 32.0144 9.12672 32.1503 9L32.2037 8.95545C32.334 8.85843 32.5038 8.80992 32.7131 8.80992H34.1444L34.1332 8.71333C34.1026 8.52014 34.0262 8.33471 33.9038 8.15702C33.7407 7.92011 33.5558 7.65289 33.3492 7.35537C33.1426 7.05785 32.9578 6.70248 32.7946 6.28926C32.6315 5.87603 32.55 5.36639 32.55 4.76033C32.55 3.3168 33.0393 2.16253 34.018 1.29752C34.9967 0.432507 36.3886 0 38.1937 0C39.3573 0 40.3224 0.187328 41.089 0.561983C41.8556 0.936639 42.4293 1.43526 42.8099 2.05785C43.1905 2.68044 43.3808 3.36088 43.3808 4.09917C43.3808 4.9697 43.1551 5.62259 42.7038 6.05785C42.2525 6.49311 41.6735 6.71074 40.9667 6.71074C40.1837 6.71074 39.553 6.4573 39.0745 5.95041C38.5961 5.44353 38.3568 4.77135 38.3568 3.93388V2.46281C38.3568 2.07713 38.2807 1.79339 38.1285 1.61157C37.9762 1.42975 37.7424 1.33884 37.4271 1.33884C37.0247 1.33884 36.7203 1.47658 36.5136 1.75207C36.307 2.02755 36.2037 2.42424 36.2037 2.94215C36.2037 3.47107 36.3261 3.96694 36.5707 4.42975C36.8154 4.89256 37.1172 5.32507 37.476 5.72727C37.8349 6.12948 38.1937 6.51515 38.5526 6.8843C38.9114 7.25344 39.2132 7.61708 39.4579 7.97521L39.5276 8.08256C39.6597 8.29711 39.7478 8.51066 39.7918 8.72322L39.8067 8.80992H42.2226C42.4728 8.80992 42.6658 8.86226 42.8017 8.96694C42.9376 9.07162 43.0056 9.23416 43.0056 9.45455C43.0056 9.78512 42.8642 10.0551 42.5815 10.2645C42.2988 10.4738 41.8529 10.5785 41.244 10.5785H40.0858V20.876C40.0858 21.1846 40.1321 21.4215 40.2245 21.5868C40.3169 21.7521 40.4664 21.8512 40.6731 21.8843L42.0758 22.0992C42.3259 22.1322 42.5108 22.2121 42.6304 22.3388C42.75 22.4656 42.8099 22.6391 42.8099 22.8595ZM10.6927 23.2398C9.71401 23.7137 8.57221 23.9506 7.26729 23.9506C5.88626 23.9506 4.64931 23.6586 3.55645 23.0745C2.46358 22.4905 1.60179 21.6448 0.971087 20.5373C0.340378 19.4299 0.0250244 18.0828 0.0250244 16.496C0.0250244 14.9643 0.353971 13.5952 1.01187 12.3886C1.66976 11.182 2.58592 10.2288 3.76034 9.52908C4.93476 8.82935 6.30492 8.47949 7.87082 8.47949C9.20835 8.47949 10.3366 8.67784 11.2554 9.07453C12.1743 9.47123 12.8757 10.0084 13.3596 10.6861C13.8435 11.3638 14.0855 12.1214 14.0855 12.9588C14.0855 13.8404 13.8326 14.5318 13.327 15.0332C12.8213 15.5346 12.1335 15.7853 11.2636 15.7853C10.3719 15.7853 9.69498 15.5291 9.23282 15.0167C8.77066 14.5043 8.53959 13.8018 8.53959 12.9092V11.8514C8.53959 11.3114 8.44172 10.9037 8.24598 10.6283C8.05024 10.3528 7.77295 10.215 7.4141 10.215C7.05525 10.215 6.73174 10.361 6.44357 10.653C6.1554 10.9451 5.93248 11.3831 5.7748 11.9671C5.61712 12.5511 5.53828 13.2729 5.53828 14.1324C5.53828 15.3665 5.72043 16.4024 6.08472 17.2398C6.44901 18.0773 6.9465 18.7054 7.57721 19.1241C8.20792 19.5429 8.92562 19.7522 9.73032 19.7522C10.535 19.7522 11.2092 19.6338 11.7529 19.3968C12.2966 19.1599 12.7153 18.7605 13.0089 18.1985C13.172 18.0442 13.2998 17.9451 13.3922 17.901C13.4847 17.8569 13.5744 17.8349 13.6614 17.8349C13.7701 17.8459 13.8598 17.8982 13.9305 17.9919C14.0012 18.0856 14.0311 18.2316 14.0202 18.4299C13.9332 19.5098 13.6016 20.463 13.0252 21.2894C12.4489 22.1159 11.6714 22.766 10.6927 23.2398ZM27.2733 22.9092C26.0499 23.5814 24.6281 23.9175 23.0078 23.9175C21.4311 23.9175 20.0473 23.5897 18.8566 22.934C17.6658 22.2784 16.7388 21.3721 16.0755 20.215C15.4122 19.058 15.0805 17.7192 15.0805 16.1985C15.0805 14.744 15.4285 13.4354 16.1244 12.2729C16.8204 11.1103 17.7827 10.1875 19.0115 9.50429C20.2403 8.82109 21.654 8.47949 23.2525 8.47949C24.8402 8.47949 26.2266 8.81007 27.4119 9.47123C28.5972 10.1324 29.5215 11.047 30.1849 12.215C30.8482 13.3831 31.1799 14.7329 31.1799 16.2646C31.1799 17.7192 30.8346 19.0222 30.1441 20.1737C29.4536 21.3252 28.4966 22.2371 27.2733 22.9092ZM24.2475 22.1984C23.9104 22.2646 23.5814 22.1158 23.2606 21.7522C22.9399 21.3885 22.6354 20.7769 22.3472 19.9174C22.059 19.0579 21.7845 17.9285 21.5235 16.529C21.2734 15.1296 21.132 13.9781 21.0994 13.0745C21.0668 12.1709 21.132 11.4877 21.2951 11.0249C21.4582 10.5621 21.7083 10.2921 22.0454 10.215C22.3825 10.1488 22.7115 10.2976 23.0323 10.6612C23.3531 11.0249 23.6603 11.6365 23.9539 12.496C24.2475 13.3555 24.5248 14.4849 24.7858 15.8844C25.0467 17.2838 25.1908 18.4381 25.218 19.3472C25.2452 20.2563 25.1745 20.9422 25.006 21.405C24.8374 21.8679 24.5846 22.1323 24.2475 22.1984ZM53.4286 23.6198C53.9397 23.6198 54.1953 23.3664 54.1953 22.8595C54.1953 22.6391 54.1355 22.4656 54.0158 22.3388C53.8962 22.2121 53.7114 22.1322 53.4613 22.0992L52.0585 21.8843C51.8519 21.8512 51.7023 21.7521 51.6099 21.5868C51.5175 21.4215 51.4713 21.1846 51.4713 20.876V10.5785H52.6294C53.2383 10.5785 53.6842 10.4738 53.9669 10.2645C54.2496 10.0551 54.391 9.78512 54.391 9.45455C54.391 9.23416 54.323 9.07162 54.1871 8.96694C54.0512 8.86226 53.8582 8.80992 53.6081 8.80992H51.1922L51.1773 8.72322C51.1332 8.51066 51.0451 8.29711 50.913 8.08256L50.8433 7.97521C50.5986 7.61708 50.2968 7.25344 49.938 6.8843C49.5791 6.51515 49.2203 6.12948 48.8614 5.72727C48.5026 5.32507 48.2008 4.89256 47.9562 4.42975C47.7115 3.96694 47.5891 3.47107 47.5891 2.94215C47.5891 2.42424 47.6925 2.02755 47.8991 1.75207C48.1057 1.47658 48.4102 1.33884 48.8125 1.33884C49.1279 1.33884 49.3617 1.42975 49.5139 1.61157C49.6661 1.79339 49.7423 2.07713 49.7423 2.46281V3.93388C49.7423 4.77135 49.9815 5.44353 50.46 5.95041C50.9384 6.4573 51.5691 6.71074 52.3521 6.71074C53.0589 6.71074 53.638 6.49311 54.0892 6.05785C54.5405 5.62259 54.7662 4.9697 54.7662 4.09917C54.7662 3.36088 54.5759 2.68044 54.1953 2.05785C53.8147 1.43526 53.2411 0.936639 52.4744 0.561983C51.7078 0.187328 50.7427 0 49.5791 0C47.774 0 46.3821 0.432507 45.4034 1.29752C44.4247 2.16253 43.9354 3.3168 43.9354 4.76033C43.9354 5.36639 44.0169 5.87603 44.1801 6.28926C44.3432 6.70248 44.528 7.05785 44.7346 7.35537C44.9413 7.65289 45.1261 7.92011 45.2892 8.15702C45.4116 8.33471 45.488 8.52014 45.5186 8.71333L45.5298 8.80992H44.0985C43.8892 8.80992 43.7194 8.85843 43.5892 8.95545L43.5358 9C43.3998 9.12672 43.3319 9.28926 43.3319 9.4876C43.3319 9.68595 43.3862 9.85399 43.495 9.99174C43.6037 10.1295 43.7831 10.259 44.0333 10.3802L44.9793 10.6942C45.1859 10.7824 45.3273 10.8788 45.4034 10.9835C45.4795 11.0882 45.5176 11.2176 45.5176 11.3719V20.9256C45.5176 21.2121 45.4687 21.4325 45.3708 21.5868C45.2729 21.741 45.137 21.8457 44.963 21.9008L44.2616 22.1157C44.0659 22.1928 43.9218 22.292 43.8294 22.4132C43.7369 22.5344 43.6907 22.6942 43.6907 22.8926C43.6907 23.124 43.7587 23.303 43.8946 23.4298C44.0305 23.5565 44.2072 23.6198 44.4247 23.6198H53.4286ZM66.2004 23.1406C65.1456 23.6806 63.9277 23.9506 62.5467 23.9506C61.0243 23.9506 59.6868 23.6338 58.5341 23.0002C57.3814 22.3665 56.4816 21.4795 55.8345 20.339C55.1875 19.1985 54.864 17.8789 54.864 16.3803C54.864 14.8046 55.1766 13.4244 55.8019 12.2398C56.4272 11.0553 57.3325 10.1324 58.5178 9.47123C59.7031 8.81007 61.1276 8.47949 62.7914 8.47949C64.205 8.47949 65.4229 8.75773 66.4451 9.3142C67.4673 9.87068 68.253 10.6255 68.8021 11.5787C69.3513 12.5318 69.6258 13.5924 69.6258 14.7605C69.6258 15.2674 69.4899 15.6668 69.2181 15.9588L69.1532 16.0236C68.8853 16.2724 68.5154 16.3968 68.0436 16.3968H60.5871L60.6031 16.4731C60.8009 17.3806 61.1388 18.1072 61.6169 18.653C62.4325 19.5842 63.5199 20.0497 64.8792 20.0497C65.7492 20.0497 66.5185 19.8514 67.1873 19.4547C67.8561 19.058 68.3046 18.507 68.533 17.8018C68.6635 17.6586 68.7804 17.5621 68.8837 17.5126C68.987 17.463 69.0767 17.4382 69.1528 17.4382C69.2616 17.4382 69.354 17.4822 69.4301 17.5704C69.5062 17.6586 69.5443 17.8073 69.5443 18.0167C69.5443 19.0966 69.2507 20.0856 68.6635 20.9836C68.0763 21.8817 67.2552 22.6007 66.2004 23.1406ZM60.4169 15.0716C60.4014 14.818 60.3936 14.5545 60.3936 14.2809C60.3936 13.2451 60.4697 12.4296 60.622 11.8346C60.7742 11.2396 60.9699 10.8181 61.2092 10.5701C61.4484 10.3222 61.7148 10.1982 62.0084 10.1982C62.389 10.1982 62.7452 10.5233 63.0768 11.1734C63.4085 11.8236 63.5743 12.9035 63.5743 14.4131C63.5743 14.8759 63.3677 15.1073 62.9545 15.1073H60.419L60.4169 15.0716ZM81.7942 23.1406C80.7394 23.6806 79.5215 23.9506 78.1404 23.9506C76.618 23.9506 75.2805 23.6338 74.1278 23.0002C72.9751 22.3665 72.0753 21.4795 71.4283 20.339C70.7812 19.1985 70.4577 17.8789 70.4577 16.3803C70.4577 14.8046 70.7704 13.4244 71.3956 12.2398C72.0209 11.0553 72.9262 10.1324 74.1115 9.47123C75.2968 8.81007 76.7213 8.47949 78.3851 8.47949C79.7987 8.47949 81.0167 8.75773 82.0388 9.3142C83.061 9.87068 83.8467 10.6255 84.3959 11.5787C84.945 12.5318 85.2196 13.5924 85.2196 14.7605C85.2196 15.2674 85.0836 15.6668 84.8118 15.9588L84.7469 16.0236C84.479 16.2724 84.1091 16.3968 83.6374 16.3968H76.1808L76.1968 16.4731C76.3946 17.3806 76.7326 18.1072 77.2107 18.653C78.0262 19.5842 79.1137 20.0497 80.473 20.0497C81.3429 20.0497 82.1123 19.8514 82.781 19.4547C83.4498 19.058 83.8984 18.507 84.1267 17.8018C84.2572 17.6586 84.3741 17.5621 84.4774 17.5126C84.5807 17.463 84.6704 17.4382 84.7465 17.4382C84.8553 17.4382 84.9477 17.4822 85.0238 17.5704C85.1 17.6586 85.138 17.8073 85.138 18.0167C85.138 19.0966 84.8444 20.0856 84.2572 20.9836C83.67 21.8817 82.849 22.6007 81.7942 23.1406ZM76.0106 15.0716C75.9951 14.818 75.9873 14.5545 75.9873 14.2809C75.9873 13.2451 76.0634 12.4296 76.2157 11.8346C76.3679 11.2396 76.5636 10.8181 76.8029 10.5701C77.0421 10.3222 77.3085 10.1982 77.6021 10.1982C77.9827 10.1982 78.3389 10.5233 78.6705 11.1734C79.0022 11.8236 79.168 12.9035 79.168 14.4131C79.168 14.8759 78.9614 15.1073 78.5482 15.1073H76.0127L76.0106 15.0716ZM95.6997 23.4134C95.5637 23.5511 95.3653 23.62 95.1043 23.62H86.9486C86.7094 23.62 86.5218 23.5539 86.3858 23.4216C86.2499 23.2894 86.1819 23.1076 86.1819 22.8762C86.1819 22.6999 86.2227 22.5539 86.3043 22.4382C86.3858 22.3225 86.4973 22.215 86.6387 22.1159L87.0138 21.9671C87.1552 21.901 87.2531 21.7963 87.3074 21.653C87.3618 21.5098 87.389 21.2729 87.389 20.9423V12.5456C87.389 12.2811 87.3591 12.0911 87.2993 11.9754C87.2395 11.8597 87.1389 11.7687 86.9975 11.7026L86.5734 11.653C86.4212 11.5649 86.3097 11.4712 86.239 11.3721C86.1684 11.2729 86.133 11.1462 86.133 10.9919C86.133 10.8156 86.1874 10.6586 86.2961 10.5208C86.4049 10.3831 86.5897 10.2646 86.8507 10.1654L91.4832 8.8266C91.755 8.71641 91.9834 8.63927 92.1682 8.59519C92.3531 8.55112 92.5108 8.52908 92.6413 8.52908C92.8261 8.52908 92.9648 8.59519 93.0572 8.72743L93.0869 8.77538C93.1632 8.9136 93.2158 9.13453 93.2448 9.43817L93.3689 12.0066L93.3973 11.9118C93.4524 11.7329 93.513 11.5612 93.5792 11.3968C93.9761 10.4106 94.5008 9.67784 95.1532 9.1985C95.8057 8.71916 96.5179 8.47949 97.29 8.47949C98.2252 8.47949 98.9429 8.79354 99.4431 9.42164C99.9433 10.0497 100.193 11.0029 100.193 12.2811C100.193 13.5484 99.9325 14.4795 99.4105 15.0745C98.8885 15.6696 98.2143 15.9671 97.3879 15.9671C96.5832 15.9671 95.9878 15.7632 95.6018 15.3555C95.2158 14.9478 95.0119 14.3693 94.9901 13.62L94.9738 12.9588C94.9629 12.7054 94.914 12.507 94.827 12.3638C94.74 12.2205 94.5986 12.1489 94.4029 12.1489C94.2072 12.1489 94.0359 12.2508 93.8891 12.4547C93.7423 12.6586 93.6308 12.9699 93.5547 13.3886C93.4786 13.8073 93.4405 14.3418 93.4405 14.9919V20.8101C93.4405 21.1186 93.4895 21.3638 93.5873 21.5456C93.6852 21.7274 93.8374 21.8404 94.0441 21.8845L95.2674 22.1324C95.4958 22.1654 95.6589 22.2508 95.7568 22.3886C95.8546 22.5263 95.9035 22.6889 95.9035 22.8762C95.9035 23.0966 95.8356 23.2756 95.6997 23.4134ZM108.741 23.9175C110.361 23.9175 111.783 23.5814 113.006 22.9092C114.229 22.2371 115.186 21.3252 115.877 20.1737C116.567 19.0222 116.913 17.7192 116.913 16.2646C116.913 14.7329 116.581 13.3831 115.918 12.215C115.254 11.047 114.33 10.1324 113.145 9.47123C111.959 8.81007 110.573 8.47949 108.985 8.47949C107.387 8.47949 105.973 8.82109 104.744 9.50429C103.516 10.1875 102.553 11.1103 101.857 12.2729C101.161 13.4354 100.813 14.744 100.813 16.1985C100.813 17.7192 101.145 19.058 101.808 20.215C102.472 21.3721 103.399 22.2784 104.589 22.934C105.78 23.5897 107.164 23.9175 108.741 23.9175ZM108.993 21.7522C109.314 22.1158 109.643 22.2646 109.98 22.1984C110.317 22.1323 110.57 21.8679 110.739 21.405C110.907 20.9422 110.978 20.2563 110.951 19.3472C110.924 18.4381 110.78 17.2838 110.519 15.8844C110.258 14.4849 109.98 13.3555 109.687 12.496C109.393 11.6365 109.086 11.0249 108.765 10.6612C108.444 10.2976 108.115 10.1488 107.778 10.215C107.441 10.2921 107.191 10.5621 107.028 11.0249C106.865 11.4877 106.8 12.1709 106.832 13.0745C106.865 13.9781 107.006 15.1296 107.256 16.529C107.517 17.9285 107.792 19.0579 108.08 19.9174C108.368 20.7769 108.673 21.3885 108.993 21.7522ZM129.848 23.9506C130.761 23.9506 131.511 23.7825 132.099 23.4464C132.686 23.1103 133.123 22.7109 133.412 22.2481C133.7 21.7853 133.844 21.361 133.844 20.9754C133.844 20.8101 133.809 20.6723 133.738 20.5621C133.667 20.4519 133.572 20.3968 133.452 20.3968C133.398 20.3968 133.349 20.4079 133.306 20.4299C133.262 20.4519 133.224 20.485 133.191 20.5291C133.137 20.7274 133.053 20.8652 132.939 20.9423C132.824 21.0194 132.702 21.058 132.572 21.058C132.387 21.058 132.248 20.9946 132.156 20.8679C132.063 20.7412 132.017 20.5732 132.017 20.3638V13.058C132.017 11.6035 131.525 10.4767 130.541 9.67784C129.557 8.87894 128.015 8.47949 125.917 8.47949C124.285 8.47949 122.923 8.68335 121.831 9.09106C120.738 9.49878 119.917 10.0194 119.368 10.653C118.818 11.2867 118.544 11.934 118.544 12.5952C118.544 13.3004 118.748 13.8376 119.155 14.2068C119.563 14.5759 120.153 14.7605 120.925 14.7605C121.871 14.7605 122.616 14.5043 123.16 13.9919C123.704 13.4795 123.976 12.8156 123.976 12.0002V10.744C123.976 10.4354 124.071 10.1957 124.261 10.0249C124.451 9.85415 124.688 9.76875 124.971 9.76875C125.275 9.76875 125.517 9.8817 125.696 10.1076C125.876 10.3335 125.965 10.6393 125.965 11.0249L125.965 15.8431L125.878 15.8243C125.616 15.7737 125.312 15.7447 124.967 15.7375L124.791 15.7357C122.453 15.7357 120.711 16.1324 119.563 16.9258C118.416 17.7192 117.842 18.8266 117.842 20.2481C117.842 21.328 118.237 22.215 119.025 22.9092C119.813 23.6035 120.86 23.9506 122.165 23.9506C123.144 23.9506 124.057 23.7495 124.905 23.3473C125.541 23.0456 126.058 22.6494 126.456 22.1587L126.478 22.1301L126.502 22.204C126.628 22.5613 126.857 22.8814 127.192 23.1643L127.295 23.2481C127.898 23.7164 128.749 23.9506 129.848 23.9506ZM124.228 20.8345C124.495 21.1926 124.845 21.3717 125.28 21.3717L125.374 21.3685C125.559 21.3556 125.739 21.3039 125.912 21.2135L125.965 21.1835V16.9419L125.884 16.9172C125.699 16.8676 125.482 16.8428 125.231 16.8428C124.807 16.8428 124.468 17.0411 124.212 17.4378C123.956 17.8345 123.829 18.4185 123.829 19.1899C123.829 19.9282 123.962 20.4764 124.228 20.8345ZM141.347 24.0002C143.283 24.0002 144.767 23.5539 145.8 22.6613C146.833 21.7687 147.35 20.5511 147.35 19.0084C147.35 18.0718 147.176 17.2508 146.828 16.5456C146.48 15.8404 145.871 15.215 145.001 14.6696C144.131 14.1241 142.908 13.609 141.331 13.1241C140.744 12.9368 140.29 12.7467 139.969 12.5539C139.648 12.361 139.428 12.1544 139.308 11.934C139.189 11.7137 139.129 11.4767 139.129 11.2233C139.129 10.8486 139.265 10.5456 139.537 10.3142C139.808 10.0828 140.211 9.9671 140.744 9.9671C141.483 9.9671 142.182 10.215 142.84 10.7109C143.498 11.2068 144.223 12.0552 145.017 13.2564C145.224 13.5098 145.43 13.6944 145.637 13.8101C145.844 13.9258 146.039 13.9616 146.224 13.9175C146.453 13.8514 146.594 13.6999 146.648 13.463C146.703 13.226 146.692 12.8872 146.616 12.4464L146.192 9.40511C146.148 9.08555 146.067 8.85966 145.947 8.72743C145.827 8.59519 145.67 8.52908 145.474 8.52908C145.3 8.52908 145.082 8.58969 144.822 8.7109C144.561 8.83211 144.302 8.95608 144.047 9.0828C143.791 9.20952 143.598 9.27288 143.468 9.27288C143.348 9.27288 143.171 9.20677 142.938 9.07453C142.704 8.9423 142.375 8.81007 141.951 8.67784C141.527 8.54561 140.977 8.47949 140.303 8.47949C139.183 8.47949 138.175 8.68335 137.277 9.09106C136.38 9.49878 135.674 10.08 135.157 10.8349C134.64 11.5897 134.382 12.4905 134.382 13.5373C134.382 14.463 134.575 15.2729 134.961 15.9671C135.347 16.6613 135.937 17.2564 136.731 17.7522C137.525 18.2481 138.525 18.6503 139.732 18.9588C140.515 19.1682 141.116 19.3803 141.535 19.5952C141.953 19.8101 142.242 20.0442 142.399 20.2977C142.557 20.5511 142.636 20.8321 142.636 21.1406C142.636 21.5484 142.5 21.8845 142.228 22.1489C141.956 22.4134 141.543 22.5456 140.988 22.5456C140.466 22.5456 139.969 22.4327 139.496 22.2068C139.023 21.9809 138.536 21.5924 138.036 21.0415C137.536 20.4905 136.976 19.7357 136.356 18.777C136.171 18.5236 135.962 18.3473 135.728 18.2481C135.494 18.1489 135.258 18.1544 135.018 18.2646C134.79 18.3528 134.643 18.5401 134.578 18.8266C134.513 19.1131 134.529 19.4657 134.627 19.8845L135.133 23.1737C135.209 23.5043 135.317 23.7247 135.459 23.8349C135.6 23.9451 135.752 24.0002 135.915 24.0002C136.1 24.0002 136.326 23.9395 136.592 23.8183L137.392 23.4547C137.658 23.3335 137.873 23.2729 138.036 23.2729C138.199 23.2729 138.414 23.3335 138.68 23.4547C138.947 23.5759 139.295 23.6971 139.724 23.8183C140.154 23.9395 140.695 24.0002 141.347 24.0002ZM156.81 23.3802C156.093 23.7603 155.244 23.9504 154.266 23.9504C152.613 23.9504 151.371 23.5482 150.539 22.7438C149.707 21.9394 149.291 20.6722 149.291 18.9422V11.4711C149.291 11.2397 149.269 11.0634 149.226 10.9422C149.182 10.821 149.073 10.7218 148.899 10.6446L148.133 10.3967C147.948 10.3086 147.828 10.2011 147.774 10.0744C147.719 9.94767 147.692 9.79065 147.692 9.60332C147.692 9.37192 147.774 9.18183 147.937 9.03307C148.1 8.88431 148.301 8.80993 148.54 8.80993H149.34C149.438 8.80993 149.541 8.77137 149.65 8.69423C149.758 8.6171 149.905 8.46283 150.09 8.23142L153.108 5.7025C153.325 5.43803 153.543 5.23693 153.76 5.09919C153.978 4.96145 154.195 4.89258 154.413 4.89258C154.663 4.89258 154.858 4.96971 155 5.12398L155.044 5.17867C155.156 5.33321 155.212 5.55741 155.212 5.85126L155.211 8.80993H158.621C158.86 8.80993 159.045 8.86228 159.176 8.96696C159.306 9.07164 159.371 9.23418 159.371 9.45456C159.371 9.7631 159.235 10.0276 158.963 10.2479L158.903 10.2935C158.629 10.4835 158.214 10.5785 157.659 10.5785H155.211L155.212 18.1157C155.212 18.9422 155.35 19.5537 155.628 19.9504C155.905 20.3471 156.31 20.5455 156.843 20.5455C157.071 20.5455 157.283 20.4959 157.479 20.3967C157.675 20.2975 157.852 20.1681 158.009 20.0083C158.167 19.8485 158.316 19.6694 158.458 19.4711C158.599 19.2727 158.735 19.0744 158.866 18.876C158.974 18.832 159.07 18.8513 159.151 18.9339C159.233 19.0165 159.268 19.1846 159.257 19.438C159.181 20.3306 158.934 21.1157 158.515 21.7934C158.096 22.4711 157.528 23 156.81 23.3802ZM167.494 23.9506C168.875 23.9506 170.093 23.6806 171.148 23.1406C172.203 22.6007 173.024 21.8817 173.611 20.9836C174.198 20.0856 174.492 19.0966 174.492 18.0167C174.492 17.8073 174.454 17.6586 174.378 17.5704C174.302 17.4822 174.209 17.4382 174.1 17.4382C174.024 17.4382 173.935 17.463 173.831 17.5126C173.728 17.5621 173.611 17.6586 173.481 17.8018C173.252 18.507 172.804 19.058 172.135 19.4547C171.466 19.8514 170.697 20.0497 169.827 20.0497C168.468 20.0497 167.38 19.5842 166.565 18.653C166.087 18.1072 165.749 17.3806 165.551 16.4731L165.535 16.3968H172.991C173.463 16.3968 173.833 16.2724 174.101 16.0236L174.166 15.9588C174.438 15.6668 174.574 15.2674 174.574 14.7605C174.574 13.5924 174.299 12.5318 173.75 11.5787C173.201 10.6255 172.415 9.87068 171.393 9.3142C170.371 8.75773 169.153 8.47949 167.739 8.47949C166.075 8.47949 164.651 8.81007 163.465 9.47123C162.28 10.1324 161.375 11.0553 160.75 12.2398C160.124 13.4244 159.812 14.8046 159.812 16.3803C159.812 17.8789 160.135 19.1985 160.782 20.339C161.429 21.4795 162.329 22.3665 163.482 23.0002C164.634 23.6338 165.972 23.9506 167.494 23.9506ZM165.341 14.2809C165.341 14.5545 165.349 14.818 165.365 15.0716L165.367 15.1073H167.902C168.315 15.1073 168.522 14.8759 168.522 14.4131C168.522 12.9035 168.356 11.8236 168.024 11.1734C167.693 10.5233 167.337 10.1982 166.956 10.1982C166.662 10.1982 166.396 10.3222 166.157 10.5701C165.918 10.8181 165.722 11.2396 165.57 11.8346C165.417 12.4296 165.341 13.2451 165.341 14.2809ZM184.458 23.62C184.719 23.62 184.918 23.5511 185.054 23.4134C185.189 23.2756 185.257 23.0966 185.257 22.8762C185.257 22.6889 185.209 22.5263 185.111 22.3886C185.013 22.2508 184.85 22.1654 184.621 22.1324L183.398 21.8845C183.191 21.8404 183.039 21.7274 182.941 21.5456C182.843 21.3638 182.794 21.1186 182.794 20.8101V14.9919C182.794 14.3418 182.833 13.8073 182.909 13.3886C182.985 12.9699 183.096 12.6586 183.243 12.4547C183.39 12.2508 183.561 12.1489 183.757 12.1489C183.953 12.1489 184.094 12.2205 184.181 12.3638C184.268 12.507 184.317 12.7054 184.328 12.9588L184.344 13.62C184.366 14.3693 184.57 14.9478 184.956 15.3555C185.342 15.7632 185.937 15.9671 186.742 15.9671C187.568 15.9671 188.242 15.6696 188.764 15.0745C189.286 14.4795 189.547 13.5484 189.547 12.2811C189.547 11.0029 189.297 10.0497 188.797 9.42164C188.297 8.79354 187.579 8.47949 186.644 8.47949C185.872 8.47949 185.16 8.71916 184.507 9.1985C183.855 9.67784 183.33 10.4106 182.933 11.3968C182.867 11.5612 182.806 11.7329 182.751 11.9118L182.723 12.007L182.599 9.43817C182.57 9.13453 182.517 8.9136 182.441 8.77538L182.411 8.72743C182.319 8.59519 182.18 8.52908 181.995 8.52908C181.865 8.52908 181.707 8.55112 181.522 8.59519C181.337 8.63927 181.109 8.71641 180.837 8.8266L176.205 10.1654C175.944 10.2646 175.759 10.3831 175.65 10.5208C175.541 10.6586 175.487 10.8156 175.487 10.9919C175.487 11.1462 175.522 11.2729 175.593 11.3721C175.664 11.4712 175.775 11.5649 175.927 11.653L176.351 11.7026C176.493 11.7687 176.593 11.8597 176.653 11.9754C176.713 12.0911 176.743 12.2811 176.743 12.5456V20.9423C176.743 21.2729 176.716 21.5098 176.661 21.653C176.607 21.7963 176.509 21.901 176.368 21.9671L175.993 22.1159C175.851 22.215 175.74 22.3225 175.658 22.4382C175.577 22.5539 175.536 22.6999 175.536 22.8762C175.536 23.1076 175.604 23.2894 175.74 23.4216C175.876 23.5539 176.063 23.62 176.302 23.62H184.458ZM201.634 22.6613C200.601 23.5539 199.117 24.0002 197.181 24.0002C196.529 24.0002 195.988 23.9395 195.558 23.8183C195.129 23.6971 194.781 23.5759 194.514 23.4547C194.248 23.3335 194.033 23.2729 193.87 23.2729C193.707 23.2729 193.492 23.3335 193.226 23.4547L192.426 23.8183C192.16 23.9395 191.934 24.0002 191.749 24.0002C191.586 24.0002 191.434 23.9451 191.293 23.8349C191.151 23.7247 191.043 23.5043 190.966 23.1737L190.461 19.8845C190.363 19.4657 190.347 19.1131 190.412 18.8266C190.477 18.5401 190.624 18.3528 190.852 18.2646C191.092 18.1544 191.328 18.1489 191.562 18.2481C191.796 18.3473 192.005 18.5236 192.19 18.777C192.81 19.7357 193.37 20.4905 193.87 21.0415C194.37 21.5924 194.857 21.9809 195.33 22.2068C195.803 22.4327 196.3 22.5456 196.822 22.5456C197.377 22.5456 197.79 22.4134 198.062 22.1489C198.334 21.8845 198.47 21.5484 198.47 21.1406C198.47 20.8321 198.391 20.5511 198.233 20.2977C198.076 20.0442 197.787 19.8101 197.369 19.5952C196.95 19.3803 196.349 19.1682 195.566 18.9588C194.359 18.6503 193.359 18.2481 192.565 17.7522C191.771 17.2564 191.181 16.6613 190.795 15.9671C190.409 15.2729 190.216 14.463 190.216 13.5373C190.216 12.4905 190.474 11.5897 190.991 10.8349C191.507 10.08 192.214 9.49878 193.111 9.09106C194.009 8.68335 195.017 8.47949 196.137 8.47949C196.811 8.47949 197.361 8.54561 197.785 8.67784C198.209 8.81007 198.538 8.9423 198.771 9.07453C199.005 9.20677 199.182 9.27288 199.302 9.27288C199.432 9.27288 199.625 9.20952 199.881 9.0828C200.136 8.95608 200.394 8.83211 200.655 8.7109C200.916 8.58969 201.134 8.52908 201.308 8.52908C201.504 8.52908 201.661 8.59519 201.781 8.72743C201.901 8.85966 201.982 9.08555 202.026 9.40511L202.45 12.4464C202.526 12.8872 202.537 13.226 202.482 13.463C202.428 13.6999 202.287 13.8514 202.058 13.9175C201.873 13.9616 201.678 13.9258 201.471 13.8101C201.264 13.6944 201.058 13.5098 200.851 13.2564C200.057 12.0552 199.332 11.2068 198.674 10.7109C198.016 10.215 197.317 9.9671 196.578 9.9671C196.045 9.9671 195.642 10.0828 195.371 10.3142C195.099 10.5456 194.963 10.8486 194.963 11.2233C194.963 11.4767 195.023 11.7137 195.142 11.934C195.262 12.1544 195.482 12.361 195.803 12.5539C196.124 12.7467 196.578 12.9368 197.165 13.1241C198.742 13.609 199.965 14.1241 200.835 14.6696C201.705 15.215 202.314 15.8404 202.662 16.5456C203.01 17.2508 203.184 18.0718 203.184 19.0084C203.184 20.5511 202.667 21.7687 201.634 22.6613Z" fill="#333D4B"/>
</svg>
