<svg width="119" height="64" viewBox="0 0 119 64" fill="none" xmlns="http://www.w3.org/2000/svg">
<path d="M30.2848 -0.902521C36.4586 -0.902521 41.7004 0.349705 46.0104 2.85416C50.3204 5.35861 53.5966 9.02793 55.8389 13.8621C58.1104 18.6963 59.2462 24.5934 59.2462 31.5534C59.2462 38.1058 58.0231 43.799 55.5769 48.6332C53.1598 53.4383 49.738 57.1658 45.3115 59.8159C40.9142 62.4368 35.716 63.7473 29.7169 63.7473C23.5723 63.7473 18.3304 62.4951 13.9913 59.9906C9.68131 57.4862 6.39058 53.8168 4.1191 48.9827C1.87674 44.1485 0.755563 38.2514 0.755563 31.2913C0.755563 24.739 1.96411 19.0603 4.38119 14.2552C6.8274 9.42106 10.2637 5.69351 14.6902 3.07257C19.1167 0.422509 24.3149 -0.902521 30.2848 -0.902521ZM38.6281 33.6065C38.6281 26.4426 38.2932 20.7202 37.6234 16.4394C36.9828 12.1585 35.9926 9.0716 34.653 7.1787C33.3426 5.2858 31.6681 4.33936 29.6296 4.33936C27.7658 4.33936 26.2223 5.16932 24.9992 6.82925C23.7761 8.46005 22.8588 11.1101 22.2473 14.7794C21.6648 18.4196 21.3736 23.2392 21.3736 29.2383C21.3736 36.4022 21.6939 42.1246 22.3346 46.4054C23.0044 50.6863 23.9945 53.7732 25.305 55.6661C26.6446 57.559 28.3337 58.5054 30.3722 58.5054C32.2359 58.5054 33.7794 57.69 35.0025 56.0592C36.2256 54.3993 37.1284 51.7492 37.7108 48.109C38.3223 44.4397 38.6281 39.6055 38.6281 33.6065ZM73.3528 47.2354L70.3824 44.9639L78.4199 40.8578C81.5942 39.227 84.2879 37.3486 86.5012 35.2227C88.7144 33.0969 90.3889 30.607 91.5246 27.7531C92.6895 24.8992 93.2719 21.5793 93.2719 17.7935C93.2719 14.2989 93.0681 11.5178 92.6604 9.45018C92.2818 7.35343 91.7139 5.83911 90.9568 4.90723C90.2287 3.97534 89.3405 3.50939 88.2921 3.50939C86.8361 3.50939 85.8023 4.17919 85.1907 5.51878C84.6083 6.85837 84.3171 8.70759 84.3171 11.0664V17.1383C84.3171 19.8175 83.4871 21.9579 81.8272 23.5596C80.1964 25.1613 77.9103 25.9621 74.969 25.9621C72.2025 25.9621 69.9893 25.103 68.3293 23.3848C66.6985 21.6667 65.8831 19.2496 65.8831 16.1336C65.8831 13.1632 66.7422 10.3821 68.4604 7.79026C70.2077 5.19844 72.8869 3.10169 76.4979 1.5C80.109 -0.101679 84.7248 -0.902521 90.3452 -0.902521C95.9074 -0.902521 100.465 -0.1308 104.018 1.41264C107.571 2.95608 110.192 5.09651 111.881 7.83394C113.599 10.5422 114.458 13.6437 114.458 17.1383C114.458 20.2252 113.584 23.0791 111.837 25.7C110.09 28.3209 107.367 30.84 103.668 33.257C99.999 35.645 95.2813 38.0475 89.5152 40.4646L73.3528 47.2354ZM64.529 54.1372C64.529 50.7008 65.8686 47.9634 68.5477 45.9249C71.2269 43.8573 75.1146 42.8235 80.2109 42.8235C82.5115 42.8235 84.6811 42.9691 86.7196 43.2603C88.7581 43.5224 90.7529 43.8282 92.7041 44.1776C94.6552 44.5271 96.65 44.8474 98.6885 45.1386C100.727 45.4007 102.882 45.5318 105.154 45.5318C107.105 45.5318 108.677 45.1678 109.871 44.4397C111.094 43.6826 112.201 42.5031 113.191 40.9014C113.657 40.1443 114.152 39.6201 114.676 39.3289C115.23 39.0377 115.827 38.9212 116.467 38.9794C117.224 39.0377 117.792 39.4017 118.171 40.0715C118.579 40.7122 118.724 41.746 118.608 43.1729C118.229 48.1236 117.355 52.1132 115.987 55.1419C114.618 58.1414 112.798 60.3255 110.526 61.6942C108.284 63.0629 105.634 63.7473 102.576 63.7473C100.13 63.7473 97.9896 63.3978 96.155 62.6989C94.3494 62.0291 92.7914 60.9079 91.481 59.3354C90.1996 57.7628 89.093 55.6369 88.1611 52.9578C87.6952 51.5308 87.2583 50.5989 86.8506 50.1621C86.472 49.7253 85.9624 49.5069 85.3217 49.5069C84.6228 49.5069 84.0404 49.8418 83.5745 50.5116C83.1085 51.1522 82.8027 52.2152 82.6571 53.7004C82.4533 56.1757 81.9291 58.156 81.0846 59.6412C80.24 61.0972 79.1043 62.1456 77.6773 62.7863C76.2795 63.427 74.605 63.7473 72.6539 63.7473C70.295 63.7473 68.3439 62.8882 66.8004 61.17C65.2861 59.4227 64.529 57.0785 64.529 54.1372Z" fill="#FDD6BA"/>
</svg>
