<svg width="104" height="64" viewBox="0 0 104 64" fill="none" xmlns="http://www.w3.org/2000/svg">
<path d="M30.1939 -0.90251C36.3676 -0.90251 41.6095 0.349716 45.9195 2.85417C50.2295 5.35862 53.5056 9.02793 55.748 13.8621C58.0195 18.6963 59.1552 24.5934 59.1552 31.5534C59.1552 38.1058 57.9321 43.799 55.4859 48.6332C53.0688 53.4383 49.647 57.1658 45.2206 59.8159C40.8232 62.4368 35.625 63.7473 29.626 63.7473C23.4813 63.7473 18.2395 62.4951 13.9004 59.9906C9.59037 57.4862 6.29964 53.8168 4.02816 48.9827C1.7858 44.1485 0.66462 38.2514 0.66462 31.2913C0.66462 24.739 1.87316 19.0603 4.29025 14.2552C6.73646 9.42107 10.1728 5.69352 14.5993 3.07258C19.0257 0.422519 24.2239 -0.90251 30.1939 -0.90251ZM38.5372 33.6065C38.5372 26.4426 38.2023 20.7202 37.5325 16.4394C36.8918 12.1585 35.9017 9.07161 34.5621 7.17871C33.2516 5.28581 31.5771 4.33937 29.5386 4.33937C27.6748 4.33937 26.1314 5.16933 24.9083 6.82926C23.6852 8.46006 22.7679 11.1101 22.1563 14.7794C21.5739 18.4196 21.2827 23.2392 21.2827 29.2383C21.2827 36.4022 21.603 42.1246 22.2437 46.4054C22.9135 50.6863 23.9036 53.7732 25.2141 55.6661C26.5537 57.559 28.2427 58.5054 30.2812 58.5054C32.145 58.5054 33.6884 57.69 34.9115 56.0592C36.1346 54.3993 37.0374 51.7492 37.6198 48.109C38.2314 44.4397 38.5372 39.6055 38.5372 33.6065ZM69.3741 11.0664H72.0388C73.058 11.0664 73.786 11.3285 74.2229 11.8527C74.6888 12.3769 74.9218 13.367 74.9218 14.8231V51.0357C74.9218 52.2006 74.6888 53.0888 74.2229 53.7004C73.786 54.2828 73.1454 54.6759 72.3008 54.8798L67.9326 55.8408C65.9815 56.3067 65.0059 57.3551 65.0059 58.9859C65.0059 59.9178 65.3117 60.6604 65.9232 61.2137C66.5639 61.7379 67.5395 62 68.8499 62H100.607C101.743 62 102.587 61.7379 103.141 61.2137C103.694 60.6604 103.971 59.9178 103.971 58.9859C103.971 57.326 103.155 56.2922 101.524 55.8845L97.6366 54.8798C96.8503 54.6759 96.2387 54.2828 95.8019 53.7004C95.3942 53.0888 95.1904 52.2006 95.1904 51.0357V2.98521C95.1904 0.684613 94.0109 -0.465687 91.6521 -0.465687C90.9241 -0.465687 90.2251 -0.378322 89.5554 -0.203592C88.9147 -0.0579841 88.2012 0.218669 87.4149 0.626369C84.9978 1.79123 82.7992 2.67944 80.8189 3.29099C78.8386 3.90254 76.4215 4.20832 73.5676 4.20832H69.6362C68.384 4.20832 67.3939 4.54322 66.6658 5.21301C65.9378 5.85368 65.5738 6.66909 65.5738 7.65922C65.5738 8.64935 65.8795 9.46476 66.4911 10.1054C67.1027 10.7461 68.0637 11.0664 69.3741 11.0664Z" fill="#FDD6BA"/>
</svg>
