<svg width="115" height="64" viewBox="0 0 115 64" fill="none" xmlns="http://www.w3.org/2000/svg">
<path d="M30.3757 -0.902499C36.5495 -0.902499 41.7914 0.349726 46.1014 2.85418C50.4113 5.35863 53.6875 9.02794 55.9299 13.8621C58.2014 18.6963 59.3371 24.5934 59.3371 31.5534C59.3371 38.1058 58.114 43.799 55.6678 48.6332C53.2507 53.4383 49.8289 57.1658 45.4024 59.8159C41.0051 62.4368 35.8069 63.7473 29.8079 63.7473C23.6632 63.7473 18.4213 62.4951 14.0822 59.9906C9.77225 57.4862 6.48152 53.8169 4.21004 48.9827C1.96768 44.1485 0.846505 38.2514 0.846505 31.2914C0.846505 24.739 2.05505 19.0603 4.47213 14.2553C6.91834 9.42108 10.3547 5.69353 14.7812 3.07259C19.2076 0.42253 24.4058 -0.902499 30.3757 -0.902499ZM38.7191 33.6065C38.7191 26.4426 38.3842 20.7202 37.7144 16.4394C37.0737 12.1585 36.0836 9.07162 34.744 7.17872C33.4335 5.28582 31.759 4.33938 29.7205 4.33938C27.8567 4.33938 26.3133 5.16934 25.0902 6.82927C23.8671 8.46007 22.9497 11.1101 22.3382 14.7794C21.7558 18.4196 21.4645 23.2392 21.4645 29.2383C21.4645 36.4022 21.7849 42.1246 22.4256 46.4054C23.0954 50.6863 24.0855 53.7732 25.396 55.6661C26.7355 57.559 28.4246 58.5054 30.4631 58.5054C32.3269 58.5054 33.8703 57.69 35.0934 56.0592C36.3165 54.3993 37.2193 51.7492 37.8017 48.109C38.4133 44.4397 38.7191 39.6055 38.7191 33.6065ZM87.7279 30.2867L86.2427 28.8451C86.8251 28.6704 87.4512 28.5248 88.121 28.4083C88.7908 28.2918 89.5043 28.2045 90.2614 28.1462C91.0186 28.0589 91.8194 28.0152 92.664 28.0152C96.8283 28.0152 100.483 28.6559 103.628 29.9372C106.773 31.2185 109.22 33.0532 110.967 35.4412C112.743 37.8 113.631 40.6248 113.631 43.9155C113.631 47.9343 112.598 51.4289 110.53 54.3993C108.492 57.3697 105.565 59.6703 101.75 61.3011C97.9641 62.9319 93.4357 63.7473 88.1647 63.7473C83.0684 63.7473 78.8312 63.1357 75.4531 61.9126C72.075 60.6895 69.5415 59.0005 67.8524 56.8455C66.1925 54.6905 65.3625 52.2297 65.3625 49.4632C65.3625 46.6675 66.2799 44.3815 68.1145 42.6051C69.9492 40.7995 72.2207 39.8968 74.929 39.8968C77.8702 39.8968 80.0689 40.6685 81.525 42.2119C83.0102 43.7262 83.7528 45.7502 83.7528 48.2838V52.9578C83.7528 54.6468 84.1168 56.0883 84.8448 57.2823C85.602 58.4763 86.6649 59.0733 88.0336 59.0733C89.4024 59.0733 90.5672 58.6656 91.5282 57.8502C92.4892 57.0057 93.2318 55.6806 93.756 53.8751C94.2802 52.0404 94.5423 49.6379 94.5423 46.6675C94.5423 42.241 93.8434 39.0814 92.4456 37.1885C91.0768 35.2956 89.1839 34.3491 86.7669 34.3491H83.6217C82.4277 34.3491 81.5395 34.087 80.9571 33.5628C80.3747 33.0095 80.0835 32.2378 80.0835 31.2477C80.0835 30.4905 80.2436 29.8207 80.564 29.2383C80.9134 28.6559 81.525 27.9861 82.3986 27.2289L101.837 10.3238L102.361 15.7405H79.2098C77.9867 15.7405 77.0403 15.9589 76.3705 16.3957C75.7007 16.8034 75.2493 17.4877 75.0163 18.4488L74.1427 21.8997C73.9388 22.7442 73.5457 23.4285 72.9633 23.9527C72.4099 24.4478 71.5945 24.6953 70.517 24.6953C69.4687 24.6953 68.6096 24.4187 67.9398 23.8654C67.27 23.2829 66.9933 22.4093 67.1098 21.2444L68.6824 4.90725C68.7989 3.65502 69.3085 2.66489 70.2113 1.93685C71.114 1.20881 72.3226 0.844791 73.8369 0.844791H109.351C111.127 0.844791 112.394 1.0632 113.151 1.50002C113.908 1.93685 114.287 2.63577 114.287 3.59678C114.287 4.23745 114.039 4.96549 113.544 5.78089C113.078 6.59629 112.073 7.71747 110.53 9.14443L87.7279 30.2867Z" fill="#FDD6BA"/>
</svg>
